<svg xmlns="http://www.w3.org/2000/svg" viewBox="0 0 247.84 247.84"><defs><style>.cls-1{fill:#fff;}.cls-2{fill:#140808;stroke:#fff;stroke-miterlimit:10;stroke-width:5px;}</style></defs><g id="Capa_2" data-name="Capa 2"><g id="Capa_1-2" data-name="Capa 1"><path class="cls-1" d="M247.84,121.76V144.7c-5.31,8.54-8.68,21.43-16.27,24.81-24.32,10.85-22.38,30.29-21.5,50.57.21,4.79-1,9.65-1.79,16H62.66c-3.17,0-7.12,1.15-9.35-.32-4-2.63-9.15-6.41-10-10.48-1.59-7.95-1.14-16.5-.42-24.7,1-11.41-2.29-18-13.71-23.32-16.67-7.82-26.14-23.87-24.94-41.94C5.7,114,7.81,91.48,16,72.13,36,24.54,78,9.41,125.79,8.21c68.79-1.74,110.6,35.09,119.07,102.65C245.32,114.56,246.82,118.13,247.84,121.76ZM52.8,226.3H200.52V154H52.8ZM126.49,138c27.84.13,51.89-18.72,51.29-40.21-.59-21.32-25.73-39.91-52.71-38.86a81.73,81.73,0,0,0-9.39,1.37C92.47,64,75.56,80.53,76,99.22c.38,18.42,18.24,34.89,41.08,37.86C120.18,137.49,123.34,137.74,126.49,138Zm-114-12.86c25.29,0,39.47-9.23,41.7-25.82C56.8,80.12,44,72.72,24.83,65.74,20.68,85.76,16.81,104.44,12.53,125.14Zm217.7-56.29c-19.29,6.55-31.61,15.68-28,34.12,3.43,17.73,17.43,24.15,36.95,26C236,107.94,233.2,88.91,230.23,68.85ZM147,15.93c10,27.35,29.87,34.22,58.61,22.23ZM48.68,38c27.82,9.68,47.52,1.95,57.48-22.53Z"/><path class="cls-1" d="M247.84,121.76c-1-3.63-2.52-7.2-3-10.9C236.39,43.3,194.58,6.47,125.79,8.21,78,9.41,36,24.54,16,72.13,7.81,91.48,5.7,114,4.28,135.36c-1.2,18.07,8.27,34.12,24.94,41.94,11.42,5.36,14.73,11.91,13.71,23.32-.72,8.2-1.17,16.75.42,24.7.81,4.07,5.94,7.85,10,10.48,2.23,1.47,6.18.32,9.35.32H208.28c.76-6.39,2-11.25,1.79-16-.88-20.28-2.82-39.72,21.5-50.57,7.59-3.38,11-16.27,16.27-24.81V247.84H0V0H247.84Z"/><path class="cls-1" d="M52.8,226.3V154H200.52V226.3Z"/><path class="cls-1" d="M126.49,138c-3.15-.29-6.31-.54-9.45-.95-22.84-3-40.7-19.44-41.08-37.86C75.56,80.53,92.47,64,115.68,60.3a81.73,81.73,0,0,1,9.39-1.37c27-1,52.12,17.54,52.71,38.86C178.38,119.28,154.33,138.13,126.49,138Z"/><path class="cls-1" d="M12.53,125.14c4.28-20.7,8.15-39.38,12.3-59.4,19.13,7,32,14.38,29.4,33.58C52,115.91,37.82,125.1,12.53,125.14Z"/><path class="cls-1" d="M230.23,68.85c3,20.06,5.78,39.09,8.9,60.14-19.52-1.87-33.52-8.29-36.95-26C198.62,84.53,210.94,75.4,230.23,68.85Z"/><path class="cls-1" d="M147,15.93l58.61,22.23C176.9,50.15,157,43.28,147,15.93Z"/><path class="cls-1" d="M48.68,38l57.48-22.53C96.2,39.94,76.5,47.67,48.68,38Z"/><circle class="cls-1" cx="87.71" cy="176.97" r="7.16"/><circle class="cls-1" cx="165.52" cy="176.97" r="7.16"/><line class="cls-2" x1="94.87" y1="206.03" x2="155.87" y2="206.03"/><circle class="cls-1" cx="88.71" cy="177.97" r="7.16"/></g></g></svg>